<?xml version="1.0" standalone="no"?>
<!DOCTYPE svg PUBLIC "-//W3C//DTD SVG 20010904//EN"
 "http://www.w3.org/TR/2001/REC-SVG-20010904/DTD/svg10.dtd">
<svg version="1.0" xmlns="http://www.w3.org/2000/svg"
 width="1246.000000pt" height="1280.000000pt" viewBox="0 0 1246.000000 1280.000000"
 preserveAspectRatio="xMidYMid meet">
<metadata>
Created by potrace 1.15, written by Peter Selinger 2001-2017
</metadata>
<g transform="translate(0.000000,1280.000000) scale(0.100000,-0.100000)"
fill="#000000" stroke="none">
<path d="M6535 12787 c-118 -30 -280 -161 -407 -327 l-27 -36 -26 -485 c-14
-267 -25 -493 -25 -502 0 -15 -2 -15 -19 2 -11 11 -32 27 -46 37 -18 12 -57
77 -122 208 -52 105 -96 192 -98 194 -1 2 -69 18 -151 37 -263 59 -505 158
-661 271 -45 32 -156 124 -248 204 -191 166 -251 208 -267 192 -16 -16 2 -54
101 -217 164 -271 199 -331 283 -490 122 -228 403 -793 385 -775 -8 8 -63 76
-123 150 -265 328 -478 495 -690 539 -49 10 -120 24 -159 31 -115 21 -200 71
-401 236 -203 167 -264 203 -264 153 0 -11 27 -80 61 -152 90 -195 111 -258
117 -359 5 -90 -9 -211 -34 -279 l-13 -39 246 -292 c398 -473 900 -1055 1241
-1437 56 -63 102 -118 102 -121 0 -4 -69 -191 -154 -416 -84 -225 -159 -427
-166 -449 -9 -28 -46 -74 -124 -155 -208 -215 -498 -539 -861 -965 -684 -801
-838 -954 -1073 -1072 -85 -43 -100 -47 -165 -48 -80 0 -180 33 -197 66 -16
29 -11 96 15 224 13 66 25 143 25 172 0 69 -15 77 -100 57 -144 -33 -380 -173
-488 -289 -90 -96 -99 -131 -82 -342 15 -181 12 -235 -25 -508 -71 -530 -136
-731 -347 -1068 -187 -299 -957 -1311 -1420 -1865 -144 -172 -137 -151 -88
-279 36 -96 91 -168 162 -213 71 -46 139 -64 238 -63 68 1 78 -1 110 -26 101
-79 261 -155 385 -182 88 -19 266 -16 345 5 70 19 224 88 300 135 l46 28 11
-57 c33 -177 156 -307 408 -433 177 -88 314 -119 430 -98 71 13 184 67 239
114 l40 34 -70 -9 c-133 -18 -298 22 -414 101 -141 95 -332 280 -439 427 l-30
40 91 75 c212 173 340 350 390 538 29 110 28 267 -2 389 -13 50 -25 90 -28 88
-2 -3 -17 -42 -33 -86 -54 -156 -144 -293 -271 -416 -148 -144 -359 -253 -729
-379 -89 -30 -164 -55 -166 -55 -2 0 58 69 134 153 256 283 401 461 722 887
l192 255 110 68 c72 44 111 63 114 55 2 -7 9 -40 15 -73 43 -220 191 -594 376
-954 58 -112 104 -204 102 -206 -7 -7 -260 -86 -336 -105 -46 -11 -131 -29
-189 -38 l-106 -17 54 -41 c254 -189 524 -272 752 -232 l78 14 34 -55 c19 -31
39 -62 43 -69 6 -9 90 -25 248 -47 132 -17 240 -31 242 -30 1 1 -34 66 -79
145 -120 213 -137 249 -119 260 12 8 18 1 27 -32 18 -58 59 -135 99 -185 45
-55 111 -103 219 -156 169 -84 322 -127 456 -127 l86 0 57 -89 c65 -103 106
-142 189 -182 84 -39 176 -52 341 -47 118 4 149 8 193 27 99 43 175 151 208
296 19 81 28 243 18 327 l-8 67 -120 -99 -119 -99 -86 45 c-131 70 -268 166
-357 249 -45 41 -84 75 -87 75 -3 0 -16 -33 -28 -72 -18 -56 -23 -97 -23 -178
0 -58 3 -117 8 -132 l7 -28 -92 0 c-51 0 -121 7 -157 16 -149 37 -338 163
-539 358 l-116 113 47 47 47 47 95 -13 c109 -14 103 -5 80 -125 -8 -43 -15
-81 -15 -85 0 -30 119 31 186 94 31 29 74 83 96 120 41 70 105 130 112 106 2
-7 11 -80 19 -161 9 -82 18 -151 21 -154 9 -9 93 56 145 113 67 73 131 182
172 294 l32 87 84 -114 c46 -63 120 -163 166 -223 l82 -110 48 0 47 0 0 -71 0
-72 51 67 50 67 107 -3 107 -3 -3 -61 c-7 -131 43 -278 127 -367 25 -28 81
-75 125 -105 l79 -55 -7 -166 c-9 -235 -43 -776 -66 -1053 l-11 -128 32 -62
c113 -226 316 -389 639 -513 223 -86 376 -80 512 20 52 38 128 128 160 190 23
43 23 25 -2 625 -6 129 -19 469 -30 755 -11 286 -22 552 -25 591 -4 69 -3 72
18 78 39 10 102 61 135 112 37 55 68 151 77 239 4 33 13 81 21 106 16 50 34
149 27 149 -2 0 -14 -12 -26 -26 l-23 -26 -13 81 c-7 44 -16 81 -20 81 -4 0
-54 -47 -111 -105 -57 -58 -104 -104 -105 -103 -1 2 -5 58 -7 125 -5 118 -4
124 20 159 32 48 115 223 140 299 27 79 52 204 52 256 l0 42 41 -6 c22 -3 42
-7 43 -9 2 -1 0 -55 -5 -118 -4 -63 -13 -206 -19 -318 -11 -194 -10 -204 8
-220 10 -9 31 -46 46 -82 62 -152 228 -273 486 -355 47 -15 92 -29 100 -32 11
-3 -1 -19 -40 -55 -179 -163 -355 -239 -586 -254 l-105 -7 33 -35 c86 -90 203
-161 311 -188 81 -21 211 -14 286 15 30 11 56 20 57 18 1 -1 12 -60 24 -130
46 -275 127 -500 235 -653 72 -101 56 -104 217 47 79 73 144 136 146 139 1 3
-10 13 -25 22 -45 27 -117 101 -160 164 -87 131 -139 245 -213 468 l-43 128
21 150 c11 82 22 151 25 154 2 3 40 -9 83 -27 142 -56 226 -78 308 -79 86 0
134 18 186 70 l45 45 -46 6 c-57 9 -98 29 -151 77 -44 39 -158 178 -158 191 0
5 15 15 33 22 59 24 174 108 211 153 46 56 83 131 91 182 6 35 12 42 67 72 33
18 62 32 63 30 2 -2 51 -100 110 -218 190 -379 387 -740 566 -1033 317 -519
500 -671 750 -623 119 23 261 73 326 115 85 55 155 146 207 268 l25 60 -52 55
c-79 84 -207 298 -469 783 -132 244 -388 731 -388 739 0 2 26 -4 58 -14 62
-19 229 -50 272 -50 47 0 144 30 177 56 26 20 63 70 63 86 0 2 -20 4 -44 4
-78 2 -202 83 -290 188 l-41 48 25 17 c131 86 214 175 251 268 30 75 34 247 7
267 -9 7 -60 23 -112 36 -53 13 -96 26 -96 29 0 3 36 47 81 96 l80 90 -28 6
c-15 4 -65 14 -110 22 -46 9 -108 27 -138 41 -63 29 -142 98 -169 151 -22 40
-24 32 46 217 l30 78 31 -16 c70 -35 351 -229 492 -340 506 -396 1069 -859
1448 -1193 l209 -183 66 17 c148 41 268 128 312 228 49 111 48 260 -3 436 -19
64 -22 89 -14 102 26 41 -59 153 -274 365 -318 311 -508 472 -1279 1084 -967
768 -1171 937 -1835 1530 -617 549 -1193 1079 -1631 1500 l-130 125 -127 290
c-70 160 -127 293 -127 297 0 4 125 107 278 229 612 491 765 641 876 861 44
86 53 121 94 340 24 132 59 195 236 431 140 186 161 219 153 240 -9 23 -32 15
-228 -80 -143 -68 -190 -86 -250 -95 -89 -12 -246 -4 -313 17 -41 13 -52 13
-65 2 -47 -39 -419 -371 -638 -570 -139 -125 -253 -224 -253 -220 0 25 40 973
45 1058 45 827 47 887 29 929 -108 249 -262 365 -429 323z m-665 -4672 c24
-103 32 -161 31 -220 -3 -196 -21 -789 -27 -871 l-6 -91 -86 -44 c-47 -24 -87
-49 -90 -56 -5 -17 58 -27 124 -20 l54 6 0 -59 c0 -49 -4 -61 -19 -70 -11 -5
-28 -24 -38 -41 -10 -17 -39 -43 -65 -59 l-46 -29 -79 68 c-119 102 -231 191
-310 245 l-71 48 63 187 c69 204 202 574 297 831 l62 165 80 83 c44 45 83 79
86 75 4 -5 22 -71 40 -148z m1134 -689 c65 -135 93 -203 86 -210 -7 -7 -28 3
-67 30 -57 39 -58 40 -91 139 -34 104 -123 418 -121 432 0 4 22 -37 49 -92 26
-55 91 -190 144 -299z m-1647 -1059 c35 -28 61 -52 60 -54 -2 -1 -21 6 -43 16
-21 11 -78 32 -126 48 -66 21 -86 32 -83 43 4 13 -3 15 -37 12 -32 -3 -40 -1
-36 9 3 8 13 40 22 72 l17 58 82 -77 c45 -43 110 -100 144 -127z m2947 123
c45 -67 55 -98 22 -71 -15 13 -89 154 -76 146 4 -2 28 -36 54 -75z m-4167
-164 l-34 -98 -117 -117 c-64 -64 -116 -120 -116 -125 0 -4 10 -21 21 -38 26
-36 24 -38 -68 -88 -66 -35 -68 -38 -82 -91 -18 -71 -20 -432 -3 -507 12 -53
8 -102 -9 -102 -22 0 -131 123 -155 174 -31 69 -41 172 -25 258 27 133 40 154
269 426 270 321 346 411 350 408 1 -2 -13 -47 -31 -100z m-843 -1006 c31 -105
109 -255 177 -341 16 -20 29 -41 29 -45 0 -5 -35 -22 -78 -38 -180 -67 -440
-190 -643 -303 -101 -57 -107 -59 -118 -40 -11 16 -1 34 81 140 161 212 527
674 535 676 1 1 9 -22 17 -49z m164 -930 c-30 -84 -32 -86 -126 -165 -109 -92
-460 -431 -452 -437 3 -2 66 -31 140 -65 95 -43 139 -58 148 -51 20 17 14 -2
-23 -68 -19 -34 -35 -73 -35 -86 0 -25 -70 -198 -80 -198 -17 0 -276 673 -305
791 -6 24 0 30 94 83 109 62 250 129 371 178 91 37 293 108 297 105 1 -2 -12
-41 -29 -87z m4892 -102 c88 -304 174 -553 239 -693 55 -117 54 -112 18 -124
-110 -36 -219 -47 -216 -23 0 4 41 42 90 85 88 78 99 97 56 97 -35 0 -142 35
-142 47 0 5 -16 23 -35 39 -46 38 -65 60 -96 112 -25 40 -64 165 -64 202 0 10
16 52 36 95 l36 78 -17 44 c-9 24 -15 46 -12 49 6 6 82 63 84 64 1 0 12 -33
23 -72z m-2675 -890 c4 -77 2 -186 -4 -257 -6 -69 -8 -127 -6 -129 2 -3 27 7
55 20 l51 25 -6 -116 c-3 -64 -10 -221 -16 -350 -5 -129 -11 -237 -13 -239 -2
-2 -37 36 -76 85 -75 90 -134 177 -187 271 l-30 54 -13 -46 c-7 -25 -16 -43
-21 -41 -4 3 -29 35 -54 72 l-46 66 20 51 c49 128 68 305 48 447 l-8 56 78 41
c43 23 107 59 143 81 36 22 68 40 71 40 4 1 10 -59 14 -131z m-657 -60 c13
-17 52 -148 44 -148 -12 1 -93 141 -87 151 9 13 31 11 43 -3z m2527 -275 c43
-87 40 -88 -41 -10 l-52 49 17 51 16 51 10 -30 c5 -16 28 -66 50 -111z m-4296
-135 c-17 -11 -32 -18 -34 -16 -1 2 -14 29 -28 60 l-26 58 59 -42 59 -42 -30
-18z m1386 -907 l38 -33 -83 7 c-46 4 -117 13 -159 20 -73 12 -75 13 -46 24
38 14 103 49 134 71 25 17 25 17 51 -19 15 -20 44 -51 65 -70z"/>
</g>
</svg>
